
<svg xmlns="http://www.w3.org/2000/svg" version="1.1" xmlns:xlink="http://www.w3.org/1999/xlink" preserveAspectRatio="none" x="0px" y="0px" width="500px" height="500px" viewBox="0 0 500 500">
<defs>
<filter id="Filter_1" x="-20%" y="-20%" width="140%" height="140%" color-interpolation-filters="sRGB">
<feColorMatrix in="SourceGraphic" type="matrix" values="1 0 0 0 0 0 1 0 0 0 0 0 1 0 0 0 0 0 0 0" result="result1"/>
</filter>

<g id="male_assets_male_hair_asfro_back_0_Layer2_0_FILL">
<path fill="#F9E10F" stroke="none" d="
M 100.45 28.65
Q 113.85 16.3 116.8 0
L 1.55 0
Q 4.45 16.3 17.85 28.65 35 44.45 59.15 44.45 83.3 44.45 100.45 28.65 Z"/>

<path fill="#403C3A" stroke="none" d="
M 101.5 29.7
Q 115.35 16.9 118.3 0
L 116.8 0
Q 113.85 16.3 100.45 28.65 83.3 44.45 59.15 44.45 35 44.45 17.85 28.65 4.45 16.3 1.55 0
L 0 0
Q 2.95 16.9 16.8 29.7 34.35 45.95 59.15 45.95 83.95 45.95 101.5 29.7 Z"/>
</g>

<g id="male_assets_male_hair_asfro_back_0_Layer1_0_FILL">
<path fill="#F8C44B" stroke="none" d="
M 4.25 3.15
Q 4.95 3.85 4.95 3 4.95 1.75 4.25 0.9 3.5 0 2.45 0 1.45 0 0.7 0.9 0 1.75 0 3 0 3.85 0.7 3.15 1.8 2.05 2.45 2.05 3.1 2.05 4.25 3.15 Z"/>
</g>

<g id="male_assets_male_hair_asfro_back_0_Layer1_1_FILL">
<path fill="#F8C44B" stroke="none" d="
M 4.25 3.15
Q 4.95 3.85 4.95 3 4.95 1.75 4.25 0.9 3.5 0 2.45 0 1.45 0 0.7 0.9 0 1.75 0 3 0 3.85 0.7 3.15 1.8 2.05 2.45 2.05 3.1 2.05 4.25 3.15 Z"/>
</g>

<g id="male_assets_male_hair_asfro_back_0_Layer1_2_FILL">
<path fill="#F8C44B" stroke="none" d="
M 4.25 3.15
Q 4.95 3.85 4.95 3 4.95 1.75 4.25 0.9 3.5 0 2.45 0 1.45 0 0.7 0.9 0 1.75 0 3 0 3.85 0.7 3.15 1.8 2.05 2.45 2.05 3.1 2.05 4.25 3.15 Z"/>
</g>

<g id="male_assets_male_hair_asfro_back_0_Layer1_3_FILL">
<path fill="#F8C44B" stroke="none" d="
M 4.25 0.9
Q 3.5 0 2.45 0 1.45 0 0.7 0.9 0 1.75 0 3 0 3.85 0.7 3.15 1.805859375 2.0517578125 2.15 1.85 2.4814453125 1.648046875 3.4 2.55 4.3314453125 3.448046875 4.65 2.6 4.955859375 1.7517578125 4.25 0.9 Z"/>
</g>

<g id="male_assets_male_hair_asfro_back_0_Layer1_4_FILL">
<path fill="#F8C44B" stroke="none" d="
M 4.25 3.15
Q 4.95 3.85 4.95 3 4.95 1.75 4.25 0.9 3.5 0 2.45 0 1.45 0 0.7 0.9 0 1.75 0 3 0 3.85 0.7 3.15 1.8 2.05 2.45 2.05 3.1 2.05 4.25 3.15 Z"/>
</g>

<g id="male_assets_male_hair_asfro_back_0_Layer1_5_FILL">
<path fill="#F8C44B" stroke="none" d="
M 4.25 3.15
Q 4.95 3.85 4.95 3 4.95 1.75 4.25 0.9 3.5 0 2.45 0 1.45 0 0.7 0.9 0 1.75 0 3 0 3.85 0.7 3.15 1.8 2.05 2.45 2.05 3.1 2.05 4.25 3.15 Z"/>
</g>

<g id="male_assets_male_hair_asfro_back_0_Layer1_6_FILL">
<path fill="#F8C44B" stroke="none" d="
M 4.25 3.15
Q 4.95 3.85 4.95 3 4.95 1.75 4.25 0.9 3.5 0 2.45 0 1.45 0 0.7 0.9 0 1.75 0 3 0 3.85 0.7 3.15 1.8 2.05 2.45 2.05 3.1 2.05 4.25 3.15 Z"/>
</g>

<g id="male_assets_male_hair_asfro_back_0_Layer1_7_FILL">
<path fill="#F8C44B" stroke="none" d="
M 4.25 3.15
Q 4.95 3.85 4.95 3 4.95 1.75 4.25 0.9 3.5 0 2.45 0 1.45 0 0.7 0.9 0 1.75 0 3 0 3.85 0.7 3.15 1.8 2.05 2.45 2.05 3.1 2.05 4.25 3.15 Z"/>
</g>

<g id="male_assets_male_hair_asfro_back_0_Layer1_8_FILL">
<path fill="#F8C44B" stroke="none" d="
M 4.25 3.15
Q 4.95 3.85 4.95 3 4.95 1.75 4.25 0.9 3.5 0 2.45 0 1.45 0 0.7 0.9 0 1.75 0 3 0 3.85 0.7 3.15 1.8 2.05 2.45 2.05 3.1 2.05 4.25 3.15 Z"/>
</g>

<g id="male_assets_male_hair_asfro_back_0_Layer1_9_FILL">
<path fill="#F8C44B" stroke="none" d="
M 4.25 0.9
Q 3.5 0 2.45 0 1.45 0 0.7 0.9 0 1.75 0 3 0 3.85 0.7 3.15 1.805859375 2.0517578125 2.15 1.85 2.4814453125 1.648046875 3.4 2.55 4.3314453125 3.448046875 4.65 2.6 4.955859375 1.7517578125 4.25 0.9 Z"/>
</g>

<g id="male_assets_male_hair_asfro_back_0_Layer1_10_FILL">
<path fill="#F8C44B" stroke="none" d="
M 4.25 0.9
Q 3.5 0 2.45 0 1.45 0 0.7 0.9 0 1.75 0 3 0 3.85 0.7 3.15 1.805859375 2.0517578125 2.15 1.85 2.4814453125 1.648046875 3.4 2.55 4.3314453125 3.448046875 4.65 2.6 4.955859375 1.7517578125 4.25 0.9 Z"/>
</g>

<g id="male_assets_male_hair_asfro_back_0_Layer1_11_FILL">
<path fill="#F8C44B" stroke="none" d="
M 4.25 3.15
Q 4.95 3.85 4.95 3 4.95 1.75 4.25 0.9 3.5 0 2.45 0 1.45 0 0.7 0.9 0 1.75 0 3 0 3.85 0.7 3.15 1.8 2.05 2.45 2.05 3.1 2.05 4.25 3.15 Z"/>
</g>

<g id="arm_colour_0_Layer1_0_FILL">
<path fill="#403C3A" stroke="none" d="
M 6.5 2.75
Q 3.85 0 0.75 0
L 0 0 0 0.6
Q 0.2 13.2 0.85 25.1 1.95 44.45 3.85 46.1 5.2 47.25 7.9 47.25 10.3 47.25 12.65 46.45 15.05 45.65 16.2 44.4 17.2 43.4 17.1 42.35 17.4 35.9 14.9 23.7 11.7 8.25 6.5 2.75
M 5.6 3.65
Q 10.55 8.85 13.65 24.05 16.15 36.2 15.85 42.35 15.9 42.95 15.3 43.55 14.3 44.55 12.2 45.3 10.05 46 7.9 46 5.65 46 4.65 45.15 3.45 44.1 2.45 30.25 1.6 17.8 1.25 1.25 3.5 1.5 5.6 3.65 Z"/>

<path fill="#FFF7EE" stroke="none" d="
M 13.65 24.05
Q 10.55 8.85 5.6 3.65 3.5 1.5 1.25 1.25 1.6 17.8 2.45 30.25 3.45 44.1 4.65 45.15 5.65 46 7.9 46 10.05 46 12.2 45.3 14.3 44.55 15.3 43.55 15.9 42.95 15.85 42.35 16.15 36.2 13.65 24.05 Z"/>
</g>

<g id="male_assets_male_sleeve_0_Layer2_0_FILL">
<path fill="#2D1661" fill-opacity="0" stroke="none" d="
M 6.5 2.75
Q 3.9 0 0.75 0
L 0 0 0 0.6
Q 0.15 11.85 0.75 22.85 1.115625 22.987109375 1.85 23.05
L 1.85 23.2 3.95 23.25
Q 8.8 23.25 11.7 21.5 12.4177734375 20.819921875 12.85 20.35 12.8857421875 20.44140625 12.9 20.5 13.6 19.9 13.9 19.4 10.95 7.45 6.5 2.75 Z"/>
</g>

<g id="male_assets_male_sleeve_0_Layer1_0_FILL">
<path fill="#403C3A" stroke="none" d="
M 0.75 0
L 0 0 0 0.6
Q 0.15 11.85 0.75 22.85 1.115625 22.987109375 1.85 23.05
L 1.85 23.2 3.95 23.25
Q 8.8 23.25 11.7 21.5 12.4177734375 20.819921875 12.85 20.35 12.8857421875 20.44140625 12.9 20.5 13.6 19.9 13.9 19.4 10.95 7.45 6.5 2.75 3.9 0 0.75 0
M 1.25 1.25
Q 3.5 1.5 5.6 3.65 9.73125 7.925390625 12.65 19.5
L 10.8 21.1
Q 7.519921875 22.839453125 1.95 22.45 1.491796875 12.8583984375 1.25 1.25 Z"/>

<path fill="#54B1D1" stroke="none" d="
M 5.6 3.65
Q 3.5 1.5 1.25 1.25 1.491796875 12.8583984375 1.95 22.45 7.519921875 22.839453125 10.8 21.1
L 12.65 19.5
Q 9.73125 7.925390625 5.6 3.65 Z"/>
</g>

<g id="male_assets_male_body_colour_0_Layer1_0_FILL">
<path fill="#403C3A" stroke="none" d="
M 16.4 0
Q 13.6 0 12 0.4 9.3 1.05 7.3 3.1 -0.45 10.9 0 43.3 0.05 72.65 3.5 72.65 4.55 72.65 5.4 70.65 6.05 69.2 7.25 64.9 9.15 58.35 10 57.65 11.6 56.4 16.25 56.4 20.95 56.4 23.15 57.7 24.05 58.25 24.8 60.7 25.25 62.15 25.95 65.45 26.75 69.25 27.25 70.5 28.05 72.55 29.25 72.55 31 72.55 31.7 66.25 32.35 59.95 32.4 43.3 32.4 20.85 30.45 12.95 27.25 0 16.75 0
L 16.4 0
M 8.2 3.95
Q 9.95 2.15 12.35 1.6 13.75 1.25 16.4 1.25
L 16.75 1.25
Q 26 1.25 29 12.45 31.1255859375 20.507421875 31.15 42.75 31.15 43.0423828125 31.15 43.3 31.15 43.766796875 31.15 44.2 31.14296875 49.784765625 31.05 54.2 31.0396484375 54.7109375 31 55.2 30.67421875 70.587890625 29.25 71.3 28.4 71.3 27.2 65.2 26.35 61.3 25.9 59.95 25.448828125 58.646484375 24.9 57.8 24.6197265625 57.34609375 24.3 57 24.0513671875 56.7966796875 23.8 56.65 22.2078125 55.6751953125 19.5 55.3 19.16484375 55.2849609375 18.8 55.25 17.626953125 55.15 16.25 55.15 15.17109375 55.15 14.2 55.2 13.8546875 55.2505859375 13.5 55.25 10.513671875 55.5994140625 9.2 56.7 9.0884765625 56.790625 8.95 56.9 8.6921875 57.2265625 8.4 57.75 7.9841796875 58.4994140625 7.55 59.7 7.05 61.1 6.05 64.6 4.35 70.95 3.5 71.4 2.65 70.65 2 63.8 1.666015625 60.0533203125 1.45 55.2 1.4669921875 54.71171875 1.45 54.2 1.286328125 49.7279296875 1.25 44.35 1.2521484375 43.8310546875 1.25 43.25
L 1.25 43.25
Q 0.8 11.5 8.2 3.95 Z"/>

<path fill="#FFF7EE" stroke="none" d="
M 8.4 57.75
Q 5.6892578125 55.0310546875 1.45 55.2 1.666015625 60.0533203125 2 63.8 2.65 70.65 3.5 71.4 4.35 70.95 6.05 64.6 7.05 61.1 7.55 59.7 7.9841796875 58.4994140625 8.4 57.75
M 24.9 57.8
Q 25.448828125 58.646484375 25.9 59.95 26.35 61.3 27.2 65.2 28.4 71.3 29.25 71.3 30.67421875 70.587890625 31 55.2 27.3421875 55.346484375 24.9 57.8
M 12.35 1.6
Q 9.95 2.15 8.2 3.95 0.8 11.5 1.25 43.25
L 1.25 43.25 1.35 43.3
Q 3.1 44.6 5.8 45.6 10.5 47.35 16.1 47.35 21.7 47.35 26.45 45.5 29.65 44.25 31 42.95
L 31 42.85 31.15 42.75
Q 31.1255859375 20.507421875 29 12.45 26 1.25 16.75 1.25
L 16.4 1.25
Q 13.75 1.25 12.35 1.6
M 16.45 21.35
Q 16.85 21.35 16.85 21.7
L 16.85 27.95
Q 18.25 28.55 20.4 28.9 23.95 29.45 27.75 28.85 28.15 28.75 28.15 29.15 28.25 29.55 27.85 29.55 25.75 29.9 23.7 29.9 20.85 29.9 18.35 29.25 16.9333984375 28.777734375 16.5 28.6 13.6759765625 29.9 9.25 29.9 7.2 29.9 5.05 29.55 4.65 29.55 4.75 29.15 4.85 28.75 5.2 28.85 9 29.45 12.55 28.9 14.6 28.6 16.1 27.95
L 16.1 21.7
Q 16.1 21.35 16.45 21.35
M 7.8 26.3
Q 7.8 26.95 7.1 26.95 6.45 26.95 6.45 26.3 6.45 25.6 7.1 25.6 7.8 25.6 7.8 26.3
M 17.3 42.85
Q 17.3 43.55 16.6 43.55 15.95 43.55 15.95 42.85 15.95 42.2 16.6 42.2 17.3 42.2 17.3 42.85
M 27.1 26.3
Q 27.1 26.95 26.45 26.95 25.8 26.95 25.8 26.3 25.8 25.6 26.45 25.6 27.1 25.6 27.1 26.3 Z"/>

<path fill="#98BECD" stroke="none" d="
M 1.45 54.2
Q 1.4669921875 54.71171875 1.45 55.2 5.6892578125 55.0310546875 8.4 57.75 8.6921875 57.2265625 8.95 56.9 7.20859375 55.2033203125 4.8 54.55 3.176171875 54.0919921875 1.45 54.2
M 31 55.2
Q 31.0396484375 54.7109375 31.05 54.2 26.9544921875 54.3357421875 24.3 57 24.6197265625 57.34609375 24.9 57.8 27.3421875 55.346484375 31 55.2
M 5.8 45.6
Q 3.1 44.6 1.35 43.3
L 1.25 43.25
Q 1.2521484375 43.8310546875 1.25 44.35 2.24375 44.9376953125 4.6 46.25 9.7 48.35 16.1 48.35 16.250390625 48.35 16.4 48.35
L 16.4 52 13.5 55.25
Q 13.8546875 55.2505859375 14.2 55.2
L 16.7 52.45 18.8 55.25
Q 19.16484375 55.2849609375 19.5 55.3
L 16.9 51.9 16.9 48.35
Q 22.8744140625 48.2064453125 27.75 46.05 30.093359375 45.0048828125 31.15 44.2 31.15 43.766796875 31.15 43.3 31.15 43.0423828125 31.15 42.75
L 31 42.85 31 42.95
Q 29.65 44.25 26.45 45.5 21.7 47.35 16.1 47.35 10.5 47.35 5.8 45.6 Z"/>

<path fill="#FFFFFF" stroke="none" d="
M 18.8 55.25
L 16.7 52.45 14.2 55.2
Q 15.17109375 55.15 16.25 55.15 17.626953125 55.15 18.8 55.25
M 31.15 44.2
Q 30.093359375 45.0048828125 27.75 46.05 22.8744140625 48.2064453125 16.9 48.35
L 16.9 51.9 19.5 55.3
Q 22.2078125 55.6751953125 23.8 56.65 24.0513671875 56.7966796875 24.3 57 26.9544921875 54.3357421875 31.05 54.2 31.14296875 49.784765625 31.15 44.2
M 4.6 46.25
Q 2.24375 44.9376953125 1.25 44.35 1.286328125 49.7279296875 1.45 54.2 3.176171875 54.0919921875 4.8 54.55 7.20859375 55.2033203125 8.95 56.9 9.0884765625 56.790625 9.2 56.7 10.513671875 55.5994140625 13.5 55.25
L 16.4 52 16.4 48.35
Q 16.250390625 48.35 16.1 48.35 9.7 48.35 4.6 46.25 Z"/>

<path fill="#F7D1B6" stroke="none" d="
M 26.45 26.95
Q 27.1 26.95 27.1 26.3 27.1 25.6 26.45 25.6 25.8 25.6 25.8 26.3 25.8 26.95 26.45 26.95
M 16.6 43.55
Q 17.3 43.55 17.3 42.85 17.3 42.2 16.6 42.2 15.95 42.2 15.95 42.85 15.95 43.55 16.6 43.55
M 7.1 26.95
Q 7.8 26.95 7.8 26.3 7.8 25.6 7.1 25.6 6.45 25.6 6.45 26.3 6.45 26.95 7.1 26.95 Z"/>

<path fill="#F9DCCA" stroke="none" d="
M 16.85 21.7
Q 16.85 21.35 16.45 21.35 16.1 21.35 16.1 21.7
L 16.1 27.95
Q 14.6 28.6 12.55 28.9 9 29.45 5.2 28.85 4.85 28.75 4.75 29.15 4.65 29.55 5.05 29.55 7.2 29.9 9.25 29.9 13.6759765625 29.9 16.5 28.6 16.9333984375 28.777734375 18.35 29.25 20.85 29.9 23.7 29.9 25.75 29.9 27.85 29.55 28.25 29.55 28.15 29.15 28.15 28.75 27.75 28.85 23.95 29.45 20.4 28.9 18.25 28.55 16.85 27.95
L 16.85 21.7 Z"/>
</g>

<g id="male_assets_male_pants_0_Layer2_0_FILL">
<path fill="#17BEE8" fill-opacity="0" stroke="none" d="
M 32.35 1
L 32.35 0 31.15 0.55 31.15 0.55 31.1 0.6 31.1 0.7
Q 29.741796875 1.9728515625 26.6 3.2 21.85 5.05 16.25 5.05 10.6 5.05 5.9 3.3 3.2 2.3 1.45 1
L 1.25 0.9 1.25 0.9 0 0.15 0 1
Q 0.05 30.35 3.45 30.35 4.5 30.35 5.4 28.35 6.05 26.85 7.25 22.6 9.05 16.1 10 15.35 10.7 14.8 12.35 14.45 14.05 14.1 16.2 14.1 20.95 14.1 23.15 15.4 24.05 15.95 24.8 18.4 25.25 19.85 25.95 23.15 26.7 26.9 27.2 28.2 28 30.25 29.2 30.25 30.95 30.25 31.65 23.95 32.3 17.65 32.35 1 Z"/>
</g>

<g id="male_assets_male_pants_0_Layer1_0_FILL">
<path fill="#6DB175" stroke="none" d="
M 31.75 0.6
Q 30.95 1.55 28.75 2.85 24.35 5.5 17 5.55 9.35 5.6 4.2 3.4 1.65 2.3 0.6 1.15 0.5 8 0.8 14.95 1.5 28.9 3.7 29.7 4.55 30.25 6.25 23 8.1 15.15 9.65 14.6 12.65 13.5 17.75 13.6 23.7 13.75 24.35 16.05 24.85 17.8 26.6 24.05 28.3 29.45 29.45 29.4 31.3 29.35 31.75 0.6 Z"/>
</g>

<g id="male_assets_male_pants_0_Layer1_1_FILL">
<path fill="#403C3A" stroke="none" d="
M 27.85 3.75
Q 31.55 2.1 32.05 1.1 32.15 0.9 32.15 0.1
L 31.15 0.55 31.15 0.65
Q 29.8 1.95 26.6 3.2 21.85 5.05 16.25 5.05 10.6 5.05 5.9 3.3 3.2 2.3 1.45 1
L 0.45 0.65 0.5 1.55 0.65 1.65
Q 2.15 2.85 4.7 3.95 9.85 6.05 16.25 6.05 22.65 6.05 27.85 3.75 Z"/>
</g>

<g id="male_assets_male_pants_0_Layer1_2_FILL">
<path fill="#403C3A" stroke="none" d="
M 0.9 11.25
L 1.05 11.2
Q 2.85 9.85 3.85 7.35 4.05 6.9 3.75 6.6 3.5 6.35 3.3 6.8 2.35 9.05 0.75 10.25 0.4 10.5 0.6 10.95 0.7 11.25 0.9 11.25 Z"/>
</g>

<g id="male_assets_male_pants_0_Layer1_3_FILL">
<path fill="#403C3A" stroke="none" d="
M 31.3 11.65
Q 31.55 11.65 31.6 11.35 31.8 10.9 31.45 10.65 30 9.5 29.15 8.4 28.6 7.65 28.6 7.45 28.4 7 28.1 7.25 27.85 7.5 28 7.95 28.35 9.4 31.15 11.6
L 31.3 11.65 Z"/>
</g>

<g id="male_assets_male_pants_0_Layer1_4_FILL">
<path fill="#403C3A" stroke="none" d="
M 25.85 17.65
Q 25 15.05 23.8 14.35 21.25 12.85 16.2 12.85 11 12.85 9.2 14.4 7.9 15.45 6.05 22.3 4.2 28.7 3.5 29.1 2.6 28.35 1.95 21.5 1.25 13.7 1.25 0.95
L 1.25 0.9 0 0.15 0 1
Q 0.05 30.35 3.45 30.35 4.5 30.35 5.4 28.35 6.05 26.85 7.25 22.6 9.05 16.1 10 15.35 10.7 14.8 12.35 14.45 14.05 14.1 16.2 14.1 20.95 14.1 23.15 15.4 24.05 15.95 24.8 18.4 25.25 19.85 25.95 23.15 26.7 26.9 27.2 28.2 28 30.25 29.2 30.25 30.95 30.25 31.65 23.95 32.3 17.65 32.35 1
L 32.35 0 31.1 0.6 31.1 1
Q 31.1 28.05 29.2 29 28.7 29 28.05 26.8 27.8 25.85 27.15 22.9 26.4 19.2 25.85 17.65 Z"/>
</g>

<g id="male_assets_male_shirt_0_Layer6_0_FILL">
<path fill="#81E481" fill-opacity="0" stroke="none" d="
M 26.85 1.5
L 26.8 1.6 26.7 1.25
Q 25.75 6.55 22.5 9.6 19.55 12.35 16.05 12.25 12.95 12.1 10.7 9.65 8 6.75 7.45 1.3
L 7.2 0
Q -0.4 7.95 0.05 40.1
L 0.05 40.45
Q 0.3 40.65 0.8 40.95 1.3 41.25 1.3 41.2 3.35 42.6 6.25 43.6 10.85 45.15 16.3 45.15 21.45 45.15 25.9 43.6 29 42.55 31.15 41
L 31.15 41.05 32.4 40.2 32.4 40.1
Q 32.4 24 31.7 17.35 30.55 6.35 26.85 1.5 Z"/>
</g>

<g id="male_assets_male_shirt_0_Layer5_0_FILL">
<path fill="#73CFE9" stroke="none" d="
M 31.3 21.2
Q 30.9 15.35 29.15 8.25 27.4 1.3 26.8 2.5 25.95 5.8 24.05 8.4 20.95 12.55 16.25 12.65 11.5 12.75 8.9 7.7 6.95 3.9 7.2 1.15 4.2 4.05 2.25 13.8 -0.15 25.65 1.05 40.4 2.35 41.45 4.85 42.55 9.95 44.65 16.3 44.65 22.65 44.65 27.75 42.4 31.45 40.7 31.65 39.95 31.75 39.7 31.7 33.5 31.65 26.45 31.3 21.2 Z"/>
</g>

<g id="male_assets_male_shirt_0_Layer5_1_FILL">
<path fill="#403C3A" stroke="none" d="
M 31.7 17.35
Q 30.55 6.35 26.85 1.5
L 26.8 1.6 26.7 1.25
Q 25.75 6.55 22.5 9.6 19.55 12.35 16.05 12.25 12.95 12.1 10.7 9.65 8 6.75 7.45 1.3
L 7.2 0
Q -0.4 7.95 0.05 40.1
L 0.05 40.45
Q 0.3 40.65 0.8 40.95 1.3 41.25 1.3 41.2 3.35 42.6 6.25 43.6 10.85 45.15 16.3 45.15 21.45 45.15 25.9 43.6 29 42.55 31.15 41
L 31.15 41.05 32.4 40.2 32.4 40.1
Q 32.4 24 31.7 17.35
M 22.35 10.7
Q 25.45 8.15 26.8 3.8 29.5 8.45 30.45 18.05 31.15 25.2 31.15 39.75 29.8 41.05 26.6 42.3 21.85 44.15 16.3 44.15 10.65 44.15 5.95 42.4 3.25 41.4 1.5 40.1
L 1.3 39.9
Q 0.95 11.2 6.85 2.45 7.65 7.7 10.45 10.5 12.8 12.85 16 13
L 16.3 13
Q 19.55 13 22.35 10.7 Z"/>
</g>

<g id="male_assets_male_belt_mc_0_Layer1_0_FILL">
<path fill="#13644B" fill-opacity="0" stroke="none" d="
M 31.65 0.6
L 31.6 0.55 31.65 0.55 31.15 0
Q 26.35 4.45 15.85 4.45 5.4 4.45 0.55 0
L 0 0.55 0 0.55 0 0.6 0 5.65 0.05 5.65 0 5.7
Q 2.45 7.9 6.85 9.15 11 10.3 15.85 10.3 20.7 10.3 24.85 9.15 29.25 7.9 31.65 5.7
L 31.6 5.65 31.65 5.65 31.65 0.6 Z"/>
</g>

<g id="heads_head2_0_Layer1_0_FILL">
<path fill="#403C3A" stroke="none" d="
M 7.8 35.9
Q 7.238671875 35.85 6.7 35.85 4.7 35.85 3.05 36.7 1.75 37.35 1.15 38.25 0.25 39.45 0.05 41.2 -0.15 43.25 0.75 45 2.25 47.95 5.4 50.05 7.049609375 51.1583984375 8.6 51.7 8.3662109375 50.9271484375 8.15 50.15 7.0802734375 49.6669921875 5.95 48.9 3.15 47 1.85 44.45 1.15 43.05 1.35 41.35 1.5 39.9 2.15 39 2.55 38.4 3.45 37.9 4.85 37.15 6.7 37.15 7.22578125 37.15 7.75 37.2
L 7.8 35.9
M 86.25 36.7
Q 84.6 35.85 82.6 35.85 82.4505859375 35.85 82.3 35.85
L 82.3 37.15
Q 82.4541015625 37.15 82.6 37.15 84.4 37.15 85.8 37.9 86.75 38.4 87.15 39 87.8 39.9 87.95 41.35 88.1 43.05 87.4 44.45 86.15 46.95 83.35 48.9 82.578125 49.423828125 81.8 49.8 81.63984375 50.6177734375 81.4 51.4 82.62890625 50.9041015625 83.9 50.05 87.05 47.95 88.55 45 89.4 43.25 89.2 41.2 89 39.45 88.15 38.25 87.55 37.35 86.25 36.7 Z"/>

<path fill="#FFF7EE" stroke="none" d="
M 82.3 35.85
L 82.3 35.8
Q 82.45 24.15 75.9 14.55 69.45 5.05 59.7 2.4
L 43.15 0.35
Q 30.85 0.35 20.8 7.55 7.9 16.85 7.85 33.95
L 7.8 35.9 7.75 37.2
Q 7.22578125 37.15 6.7 37.15 4.85 37.15 3.45 37.9 2.55 38.4 2.15 39 1.5 39.9 1.35 41.35 1.15 43.05 1.85 44.45 3.15 47 5.95 48.9 7.0802734375 49.6669921875 8.15 50.15 8.3662109375 50.9271484375 8.6 51.7 11.1396484375 59.11953125 19.45 65.3 30.7 73.7 43.6 73.7
L 45.25 73.7
Q 58.85 73.7 70.25 65.5 78.94140625 59.25078125 81.4 51.4 81.63984375 50.6177734375 81.8 49.8 82.578125 49.423828125 83.35 48.9 86.15 46.95 87.4 44.45 88.1 43.05 87.95 41.35 87.8 39.9 87.15 39 86.75 38.4 85.8 37.9 84.4 37.15 82.6 37.15 82.4541015625 37.15 82.3 37.15
L 82.3 35.85 Z"/>
</g>

<g id="heads_head2_0_Layer1_1_FILL">
<path fill="#403C3A" stroke="none" d="
M 82.95 43.5
L 82.9 35.35
Q 83.05 29.25 81.1 23.1 78.7 15.9 73.85 10.7 63.85 0 45 0
L 44.85 0
Q 26.1 0 16 10.7 11.15 15.9 8.8 23.1 6.8 29.25 7 35.35
L 6.85 43.3
Q 7 57.15 18.15 65.8 28.85 74.2 44.9 74.2 60.6 74.2 71.6 65.45 82.8 56.6 82.95 43.5
M 81.6 35.35
L 81.65 43.85
Q 81.35 56.45 70.55 64.8 60 72.95 44.9 72.95 29.3 72.95 18.9 64.8 8.1 56.4 8.1 43
L 8.25 35.35
Q 8.1 29.6 10 23.65 12.3 16.55 16.95 11.55 26.65 1.25 44.85 1.25
L 45 1.25
Q 63.2 1.25 72.95 11.55 77.6 16.5 79.9 23.65 81.75 29.55 81.6 35.35 Z"/>
</g>

<g id="male_assets_mouth_mc_0_Layer1_0_FILL">
<path fill="#403C3A" stroke="none" d="
M 8.1 3.4
Q 9.15 3.4 9.7 3.3
L 9.55 2.1
Q 6.4 2.45 3.25 1.3 1.7 0.7 0.7 0
L 0 1.05
Q 0.95 1.7 2.35 2.25 5.2 3.4 8.1 3.4 Z"/>
</g>

<g id="eyes_0_Layer1_0_FILL">
<path fill="#524B54" stroke="none" d="
M 7.15 6.65
Q 7.15 5.55 6.4 4.75 5.65 4 4.5 4 3.4 4 2.65 4.75 1.9 5.55 1.9 6.65 1.9 7.75 2.65 8.5 3.4 9.25 4.5 9.25 5.6 9.25 6.4 8.5 7.15 7.75 7.15 6.65 Z"/>
</g>

<g id="eyes_0_Layer1_1_FILL">
<path fill="#524B54" stroke="none" d="
M 7.15 6.65
Q 7.15 5.55 6.4 4.75 5.65 4 4.5 4 3.4 4 2.65 4.75 1.9 5.55 1.9 6.65 1.9 7.75 2.65 8.5 3.4 9.25 4.5 9.25 5.6 9.25 6.4 8.5 7.15 7.75 7.15 6.65 Z"/>
</g>

<g id="hairr_assets_male_hair1_0_Layer1_0_FILL">
<path fill="#403C3A" stroke="none" d="
M 64.75 13.75
Q 66.95 15.55 68.75 20.05 69.75 22.55 71.5 28.5 73 33.7 73.85 35.7 75.2 38.95 76.85 39.65
L 77.55 39.95 77.55 39.2
Q 77.65 36.7 77.35 33.3 76.85 26.5 75.2 21.6 72.55 13.75 63.45 7.45 52.75 0 39.2 0
L 38.35 0
Q 25.55 0 14.25 7.9 4.7 14.55 2.35 21.4 0.7 26.3 0.2 33.2 -0.05 36.65 0 39.2
L 0 39.95 0.7 39.65
Q 2.3 38.95 3.6 35.85 4.4 33.95 5.8 28.95 7.45 23.05 8.55 20.35 10.4 15.75 12.8 13.75 17.7 9.6 22.4 9.6 24.9 9.6 29.45 11 34.9 12.6 38.4 12.7
L 39.15 12.7
Q 42.65 12.6 47.9 10.7 52.25 9.15 54.6 9.15 59.25 9.15 64.75 13.75
M 69.6 19.55
Q 67.7 14.9 65.35 12.95 59.6 8.15 54.6 8.15 53 8.15 51.05 8.65 50 8.9 47.55 9.75 44.95 10.7 43.45 11.05 41.05 11.65 38.75 11.7 35 11.65 29.7 10 24.7 8.6 22.4 8.6 17.3 8.6 12.15 12.95 9.6 15.15 7.65 19.85 6.5 22.7 4.85 28.65 3.65 32.9 3.05 34.5 2.05 37.3 1 38.25 1 28.45 3.3 21.7 5.5 15.25 14.9 8.75 26.05 1 38.35 1
L 39.2 1
Q 53.25 1 63.75 8.9 71.85 15 74.25 21.95 76.55 28.65 76.55 38.25 75.45 37.25 74.35 34.3 73.65 32.35 72.45 28.2 70.75 22.3 69.6 19.55 Z"/>

<path fill="#F9E10F" stroke="none" d="
M 65.35 12.95
Q 67.7 14.9 69.6 19.55 70.75 22.3 72.45 28.2 73.65 32.35 74.35 34.3 75.45 37.25 76.55 38.25 76.55 28.65 74.25 21.95 71.85 15 63.75 8.9 53.25 1 39.2 1
L 38.35 1
Q 26.05 1 14.9 8.75 5.5 15.25 3.3 21.7 1 28.45 1 38.25 2.05 37.3 3.05 34.5 3.65 32.9 4.85 28.65 6.5 22.7 7.65 19.85 9.6 15.15 12.15 12.95 17.3 8.6 22.4 8.6 24.7 8.6 29.7 10 35 11.65 38.75 11.7 41.05 11.65 43.45 11.05 44.95 10.7 47.55 9.75 50 8.9 51.05 8.65 53 8.15 54.6 8.15 59.6 8.15 65.35 12.95 Z"/>
</g>

<g id="glasses_0_Layer1_0_FILL">
<path fill="#1C5B2E" fill-opacity="0" stroke="none" d="
M 60.65 1.7
Q 60.65 1 60.15 0.5 59.6 0 58.9 0
L 39.9 0
Q 39.2 0 38.65 0.5 38.15 1 38.15 1.7
L 38.15 3.7 22.45 3.7 22.45 1.7
Q 22.45 1 21.95 0.5 21.45 0 20.75 0
L 1.7 0
Q 1 0 0.5 0.5 0 1 0 1.7
L 0 8.2
Q 0 8.9 0.5 9.4 1 9.9 1.7 9.9
L 20.75 9.9
Q 21.45 9.9 21.95 9.4 22.45 8.9 22.45 8.2
L 22.45 4.7 38.15 4.7 38.15 8.2
Q 38.15 8.9 38.65 9.4 39.2 9.9 39.9 9.9
L 58.9 9.9
Q 59.6 9.9 60.15 9.4 60.65 8.9 60.65 8.2
L 60.65 1.7 Z"/>
</g>

<g id="male_assets_headwear_mc_0_Layer3_0_FILL">
<path fill="#322651" fill-opacity="0" stroke="none" d="
M 88 38.05
Q 83.4517578125 37.4814453125 81.55 37.4 80.9048828125 36.0728515625 80.1 34.85 82.9888671875 26.33671875 82.45 25.7 82.15 25.25 81 25.5 79.1390625 25.8427734375 73.85 27.9 72.924609375 27.1603515625 71.9 26.45 72.1453125 24.605859375 72.35 22.1 72.8 16.75 72.2 16.35
L 72.05 16.25 71.85 16.25
Q 71.2 16.25 66.5 19.75 64.2181640625 21.425 62.95 22.45 61.5681640625 22.0322265625 59.9 21.7
L 59.9 7.65 59.4 7.55
Q 54.7 6.75 50.8 3.75 47.85 0.9 47.8 0.85
L 46.9 0 46 0.7 45.9 0.85
Q 44.85 2.25 42.9 3.75 39 6.75 34.3 7.55
L 33.8 7.65 33.8 21.7
Q 32.100390625 22.0580078125 30.8 22.4 29.5236328125 21.4125 27.25 19.75 22.5 16.25 21.85 16.25
L 21.65 16.25 21.5 16.35
Q 20.9 16.75 21.35 22.1 21.5533203125 24.6162109375 21.8 26.45 20.7677734375 27.160546875 19.8 27.9 14.5595703125 25.842578125 12.7 25.5 11.55 25.25 11.25 25.7 10.7125 26.3353515625 13.6 34.8 12.8353515625 36.0537109375 12.15 37.4 10.1671875 37.47578125 5.75 38.05 2.05 38.55 1.1 38.8 0.45 39 0.35 39.35 0.2 40.05 4.15 43.65 7.0626953125 46.2833984375 9 47.7 8.684765625 49.79609375 8.65 51.65 5.843359375 52.804296875 4 54.25 2.3126953125 55.6345703125 3.05 58.75 2.1771484375 59.4068359375 1.55 60.35
L 92.15 60.35
Q 91.51796875 59.422265625 90.65 58.8 91.4779296875 55.6376953125 89.7 54.25 87.859765625 52.806640625 85.05 51.65 85.0232421875 49.5810546875 84.75 47.7 86.671875 46.2916015625 89.55 43.65 93.5 40.05 93.35 39.35 93.25 39 92.6 38.8 91.65 38.55 88 38.05 Z"/>
</g>

<g id="male_assets_male_goatee1_0_Layer1_0_FILL">
<path fill="#F9E10F" stroke="none" d="
M 24.6 9.6
Q 24.6 4.95 20.6 2.6 17.35 0.65 12.6 0.65 7.85 0.65 4.6 2.6 0.6 4.95 0.6 9.6 0.6 14.5 4.6 18.3 8.4 21.9 12.6 21.9 16.8 21.9 20.6 18.3 24.6 14.5 24.6 9.6 Z"/>
</g>

<g id="male_assets_male_goatee1_0_Layer1_1_FILL">
<path fill="#403C3A" stroke="none" d="
M 25.2 9.6
Q 25.2 4.7 21.1 2.15 17.65 0 12.6 0 7.55 0 4.15 2.15 0 4.7 0 9.6 0 14.75 4.15 18.75 8.1 22.5 12.6 22.5 17.1 22.5 21.05 18.75 25.2 14.75 25.2 9.6
M 20.25 3.1
Q 23.95 5.35 23.95 9.6 23.95 14.15 20.2 17.8 16.6 21.25 12.6 21.25 8.6 21.25 5 17.8 1.25 14.15 1.25 9.6 1.25 5.35 4.95 3.1 8.05 1.25 12.6 1.25 17.15 1.25 20.25 3.1 Z"/>
</g>

<g id="male_assets_male_goatee1_0_Layer1_2_FILL">
<path fill="#403C3A" stroke="none" d="
M 12.9 10.15
Q 15.55 10.15 17.85 9.3
L 17.4 8.15
Q 14.45 9.2 11.1 8.8
L 8.35 8.15 7.85 9.3
Q 10.05 10.15 12.9 10.15 Z"/>
</g>
</defs>

<g transform="matrix( 1.7564697265625, 0, 0, 1.7564697265625, 250.2,366.6) ">
<g id="avatar" transform="matrix( 1, 0, 0, 1, -0.05,-0.55) ">
<g transform="matrix( 1, 0, 0, 1, -58.2,-109.6) ">
<g id="colour" transform="matrix( 1, 0, 0, 1, 0,0) ">
<g transform="matrix( 1, 0, 0, 1, 0,0) ">
<use filter="url(#Filter_1)" xlink:href="#male_assets_male_hair_asfro_back_0_Layer2_0_FILL"/>
</g>

<g transform="matrix( 0.8924560546875, 0.447784423828125, -0.447784423828125, 0.8924560546875, 101.8,0.15) ">
<use filter="url(#Filter_1)" xlink:href="#male_assets_male_hair_asfro_back_0_Layer1_0_FILL"/>
</g>

<g transform="matrix( 0.8924560546875, 0.447784423828125, -0.447784423828125, 0.8924560546875, 107.2,8.65) ">
<use filter="url(#Filter_1)" xlink:href="#male_assets_male_hair_asfro_back_0_Layer1_1_FILL"/>
</g>

<g transform="matrix( 0.8924560546875, 0.447784423828125, -0.447784423828125, 0.8924560546875, 97.35,9.2) ">
<use filter="url(#Filter_1)" xlink:href="#male_assets_male_hair_asfro_back_0_Layer1_2_FILL"/>
</g>

<g transform="matrix( 0.7945556640625, 0.6027679443359375, -0.6027679443359375, 0.7945556640625, 97.5,19.5) ">
<use filter="url(#Filter_1)" xlink:href="#male_assets_male_hair_asfro_back_0_Layer1_3_FILL"/>
</g>

<g transform="matrix( -0.8924560546875, 0.447784423828125, 0.447784423828125, 0.8924560546875, 16.85,0.7) ">
<use filter="url(#Filter_1)" xlink:href="#male_assets_male_hair_asfro_back_0_Layer1_4_FILL"/>
</g>

<g transform="matrix( -0.8924560546875, 0.447784423828125, 0.447784423828125, 0.8924560546875, 11.45,9.2) ">
<use filter="url(#Filter_1)" xlink:href="#male_assets_male_hair_asfro_back_0_Layer1_5_FILL"/>
</g>

<g transform="matrix( -0.8924560546875, 0.447784423828125, 0.447784423828125, 0.8924560546875, 21.3,9.75) ">
<use filter="url(#Filter_1)" xlink:href="#male_assets_male_hair_asfro_back_0_Layer1_6_FILL"/>
</g>

<g transform="matrix( -0.8924560546875, 0.447784423828125, 0.447784423828125, 0.8924560546875, 21.75,21.2) ">
<use filter="url(#Filter_1)" xlink:href="#male_assets_male_hair_asfro_back_0_Layer1_7_FILL"/>
</g>

<g transform="matrix( -0.8924560546875, 0.447784423828125, 0.447784423828125, 0.8924560546875, 29.45,14.15) ">
<use filter="url(#Filter_1)" xlink:href="#male_assets_male_hair_asfro_back_0_Layer1_8_FILL"/>
</g>

<g transform="matrix( 0.7945556640625, 0.6027679443359375, -0.6027679443359375, 0.7945556640625, 88.15,17.05) ">
<use filter="url(#Filter_1)" xlink:href="#male_assets_male_hair_asfro_back_0_Layer1_9_FILL"/>
</g>

<g transform="matrix( 0.7945556640625, 0.6027679443359375, -0.6027679443359375, 0.7945556640625, 88.15,27.3) ">
<use filter="url(#Filter_1)" xlink:href="#male_assets_male_hair_asfro_back_0_Layer1_10_FILL"/>
</g>

<g transform="matrix( -0.8924560546875, 0.447784423828125, 0.447784423828125, 0.8924560546875, 31.1,27.5) ">
<use filter="url(#Filter_1)" xlink:href="#male_assets_male_hair_asfro_back_0_Layer1_11_FILL"/>
</g>
</g>
</g>

<g id="arm1" transform="matrix( -1, 0, 0, 1, -7.1,-69.8) ">
<g id="colour_FL" transform="matrix( 1, 0, 0, 1, 0,0) ">
<g transform="matrix( 1, 0, 0, 1, 0,0) ">
<use xlink:href="#arm_colour_0_Layer1_0_FILL"/>
</g>
</g>

<g id="shirt" transform="matrix( 1, 0, 0, 1, 0.05,0.1) ">
<g transform="matrix( 1, 0, 0, 1, 0,0) ">
<use xlink:href="#male_assets_male_sleeve_0_Layer2_0_FILL"/>
</g>

<g transform="matrix( 1, 0, 0, 1, 0,0) ">
<use xlink:href="#male_assets_male_sleeve_0_Layer1_0_FILL"/>
</g>
</g>
</g>

<g id="arm2" transform="matrix( 1, 0, 0, 1, 6.65,-69.8) ">
<g id="colour_FL_FL" transform="matrix( 1, 0, 0, 1, 0,0) ">
<g transform="matrix( 1, 0, 0, 1, 0,0) ">
<use xlink:href="#arm_colour_0_Layer1_0_FILL"/>
</g>
</g>

<g id="shirt_FL" transform="matrix( 1, 0, 0, 1, 0.05,0.1) ">
<g transform="matrix( 1, 0, 0, 1, 0,0) ">
<use xlink:href="#male_assets_male_sleeve_0_Layer2_0_FILL"/>
</g>

<g transform="matrix( 1, 0, 0, 1, 0,0) ">
<use xlink:href="#male_assets_male_sleeve_0_Layer1_0_FILL"/>
</g>
</g>
</g>

<g id="body" transform="matrix( 1, 0, 0, 1, -16.3,-72.1) ">
<g id="colour_FL_FL_FL" transform="matrix( 1, 0, 0, 1, 0,0) ">
<g transform="matrix( 1, 0, 0, 1, 0,0) ">
<use xlink:href="#male_assets_male_body_colour_0_Layer1_0_FILL"/>
</g>
</g>
</g>

<g id="pants" transform="matrix( 1, 0, 0, 1, -16.25,-29.8) ">
<g transform="matrix( 1, 0, 0, 1, 0,0) ">
<use xlink:href="#male_assets_male_pants_0_Layer2_0_FILL"/>
</g>

<g transform="matrix( 1, 0, 0, 1, 0,0) ">
<use xlink:href="#male_assets_male_pants_0_Layer1_0_FILL"/>
</g>

<g transform="matrix( 1, 0, 0, 1, 0,0) ">
<use xlink:href="#male_assets_male_pants_0_Layer1_1_FILL"/>
</g>

<g transform="matrix( 1, 0, 0, 1, 0,0) ">
<use xlink:href="#male_assets_male_pants_0_Layer1_2_FILL"/>
</g>

<g transform="matrix( 1, 0, 0, 1, 0,0) ">
<use xlink:href="#male_assets_male_pants_0_Layer1_3_FILL"/>
</g>

<g transform="matrix( 1, 0, 0, 1, 0,0) ">
<use xlink:href="#male_assets_male_pants_0_Layer1_4_FILL"/>
</g>
</g>

<g id="shirt_FL_FL" transform="matrix( 1, 0, 0, 1, -16.35,-68.85) ">
<g transform="matrix( 1, 0, 0, 1, 0,0) ">
<use xlink:href="#male_assets_male_shirt_0_Layer6_0_FILL"/>
</g>

<g transform="matrix( 1, 0, 0, 1, 0,0) ">
<use xlink:href="#male_assets_male_shirt_0_Layer5_0_FILL"/>
</g>

<g transform="matrix( 1, 0, 0, 1, 0,0) ">
<use xlink:href="#male_assets_male_shirt_0_Layer5_1_FILL"/>
</g>
</g>

<g id="belt" transform="matrix( 1, 0, 0, 1, -15.8,-31.45) ">
<g transform="matrix( 1, 0, 0, 1, 0,0) ">
<use xlink:href="#male_assets_male_belt_mc_0_Layer1_0_FILL"/>
</g>
</g>

<g id="head" transform="matrix( 1, 0, 0, 1, -43.85,-140.6) ">
<g id="colour_FL_FL_FL_FL" transform="matrix( 1, 0, 0, 1, -0.35,-0.4) ">
<g transform="matrix( 1, 0, 0, 1, 0,0) ">
<use xlink:href="#heads_head2_0_Layer1_0_FILL"/>
</g>

<g transform="matrix( 1, 0, 0, 1, 0.05,0) ">
<use xlink:href="#heads_head2_0_Layer1_1_FILL"/>
</g>
</g>

<g id="mouth" transform="matrix( 1, 0, 0, 1, 42.4,58.95) ">
<g transform="matrix( 0.97149658203125, -0.2338714599609375, 0.2338714599609375, 0.97149658203125, -3.35,1.05) ">
<use xlink:href="#male_assets_mouth_mc_0_Layer1_0_FILL"/>
</g>
</g>

<g id="eyes" transform="matrix( 1, 0, 0, 1, 16.35,33.4) ">
<g transform="matrix( 0.8301849365234375, 0, 0, 0.8301849365234375, 4.7,3.15) ">
<use xlink:href="#eyes_0_Layer1_0_FILL"/>
</g>

<g transform="matrix( 0.8301849365234375, 0, 0, 0.8301849365234375, 43.6,3.15) ">
<use xlink:href="#eyes_0_Layer1_1_FILL"/>
</g>
</g>

<g id="hair" transform="matrix( 1, 0, 0, 1, 5.1,-9.05) ">
<g id="colour_FL_FL_FL_FL_FL" transform="matrix( 1, 0, 0, 1, 0.95,4.85) ">
<g transform="matrix( 1, 0, 0, 1, 0,0) ">
<use filter="url(#Filter_1)" xlink:href="#hairr_assets_male_hair1_0_Layer1_0_FILL"/>
</g>
</g>

<g id="colour_FL_FL_FL_FL_FL_FL" transform="matrix( 1, 0, 0, 1, 0.95,4.85) ">
<g transform="matrix( 1, 0, 0, 1, 0,0) ">
<use xlink:href="#hairr_assets_male_hair1_0_Layer1_0_FILL"/>
</g>
</g>
</g>

<g id="glasses" transform="matrix( 1, 0, 0, 1, 14,37.25) ">
<g transform="matrix( 1, 0, 0, 1, 0,0) ">
<use xlink:href="#glasses_0_Layer1_0_FILL"/>
</g>
</g>

<g id="hats" transform="matrix( 1, 0, 0, 1, -2.55,-27.15) ">
<g transform="matrix( 1, 0, 0, 1, 0,0) ">
<use xlink:href="#male_assets_headwear_mc_0_Layer3_0_FILL"/>
</g>
</g>

<g id="beards" transform="matrix( 1, 0, 0, 1, 6.6,37.25) ">
<g id="colour_FL_FL_FL_FL_FL_FL_FL" transform="matrix( 1, 0, 0, 1, 24.3,15.1) ">
<g transform="matrix( 1.084442138671875, 0, 0, 1.084442138671875, 0,0) ">
<use filter="url(#Filter_1)" xlink:href="#male_assets_male_goatee1_0_Layer1_0_FILL"/>
</g>

<g transform="matrix( 1.084442138671875, 0, 0, 1.084442138671875, 0,0) ">
<use filter="url(#Filter_1)" xlink:href="#male_assets_male_goatee1_0_Layer1_1_FILL"/>
</g>

<g transform="matrix( 1.084442138671875, 0, 0, 1.084442138671875, 0,0) ">
<use filter="url(#Filter_1)" xlink:href="#male_assets_male_goatee1_0_Layer1_2_FILL"/>
</g>
</g>
</g>
</g>
</g>
</g>
</svg>
